<?xml version="1.0" standalone="no"?>
<!DOCTYPE svg PUBLIC "-//W3C//DTD SVG 20010904//EN"
 "http://www.w3.org/TR/2001/REC-SVG-20010904/DTD/svg10.dtd">
<svg version="1.0" xmlns="http://www.w3.org/2000/svg"
 width="512.000000pt" height="512.000000pt" viewBox="0 0 512.000000 512.000000"
 preserveAspectRatio="xMidYMid meet">
<metadata>
Created by potrace 1.14, written by Peter Selinger 2001-2017
</metadata>
<g transform="translate(0.000000,512.000000) scale(0.100000,-0.100000)"
fill="#000000" stroke="none">
<path d="M2399 5116 c-2 -2 -38 -6 -79 -10 -93 -8 -224 -29 -310 -51 -36 -9
-72 -17 -80 -19 -49 -12 -107 -28 -120 -33 -8 -4 -17 -7 -20 -8 -19 -6 -49
-18 -70 -27 -14 -6 -34 -13 -45 -15 -27 -5 -288 -133 -296 -145 -3 -5 -9 -9
-13 -8 -24 5 -312 -199 -398 -282 -15 -14 -28 -25 -28 -22 0 6 -180 -179 -215
-222 -16 -20 -45 -52 -62 -72 -18 -21 -33 -42 -33 -47 0 -6 -9 -16 -20 -23
-11 -7 -20 -18 -20 -26 0 -7 -9 -21 -20 -31 -11 -10 -17 -21 -15 -25 3 -5 2
-10 -3 -12 -40 -17 -272 -479 -272 -542 0 -9 -5 -16 -12 -16 -6 0 -9 -2 -6 -6
3 -3 -1 -26 -9 -52 -18 -57 -44 -150 -49 -177 -2 -11 -11 -54 -19 -95 -27
-134 -39 -271 -37 -435 1 -156 5 -235 12 -235 3 0 6 -20 7 -44 2 -24 9 -62 17
-84 8 -22 13 -42 10 -45 -2 -2 3 -20 11 -40 8 -21 12 -37 9 -37 -4 0 -1 -6 5
-14 6 -7 12 -25 13 -40 1 -14 6 -26 10 -26 4 0 8 -5 8 -11 0 -30 111 -273 185
-404 54 -97 154 -248 167 -253 4 -2 8 -10 8 -18 0 -8 4 -14 8 -14 4 0 15 -12
24 -27 9 -16 25 -38 35 -50 10 -12 28 -35 40 -50 12 -15 30 -38 41 -51 11 -13
35 -42 54 -64 18 -23 41 -49 51 -57 9 -9 17 -20 17 -27 0 -6 11 -17 25 -24 14
-7 25 -17 25 -22 0 -10 222 -232 320 -318 102 -91 115 -102 151 -130 18 -14
46 -37 61 -53 16 -15 33 -27 37 -27 5 0 23 -12 40 -27 16 -16 43 -37 58 -48
138 -99 211 -149 230 -158 13 -6 23 -14 23 -19 0 -4 7 -8 15 -8 8 0 15 -4 15
-10 0 -5 6 -10 14 -10 7 0 24 -8 37 -19 13 -10 47 -31 74 -45 28 -15 69 -38
92 -51 23 -12 44 -20 47 -17 4 3 6 -1 6 -8 0 -7 3 -10 7 -7 3 4 13 1 21 -5 8
-7 28 -18 46 -24 17 -7 56 -22 86 -34 50 -20 79 -29 150 -47 58 -15 185 -7
260 16 87 26 242 91 251 104 3 5 8 8 10 6 2 -1 24 9 49 22 25 12 48 22 53 21
4 -1 7 3 7 8 0 6 5 10 12 10 6 0 26 11 43 25 18 13 35 21 39 18 3 -4 6 -1 6 5
0 7 7 12 15 12 8 0 15 5 15 11 0 5 5 7 10 4 6 -3 10 -2 10 3 0 5 12 14 26 21
24 11 252 170 281 196 6 5 36 28 67 50 31 22 56 43 56 47 0 4 8 8 17 8 9 0 13
3 9 7 -3 4 2 12 13 17 65 36 387 342 531 506 41 46 80 89 85 95 6 7 21 26 35
44 14 18 35 44 48 59 13 15 37 47 55 72 17 25 36 50 42 57 30 35 35 43 35 53
0 5 4 10 10 10 5 0 12 11 16 24 3 14 12 27 20 30 8 3 14 12 14 21 0 8 4 15 9
15 5 0 12 9 16 19 3 11 17 36 31 57 36 53 110 194 156 298 40 92 108 287 111
319 1 9 4 17 8 17 4 0 6 8 4 17 -1 10 0 23 4 28 6 11 8 22 16 80 3 22 8 58 12
80 12 70 6 433 -8 460 -3 6 -5 27 -4 48 0 20 -3 37 -8 37 -4 0 -6 3 -3 8 2 4
0 30 -6 57 -6 28 -10 58 -10 68 1 9 -3 17 -8 17 -4 0 -7 8 -6 18 2 9 -3 40
-12 67 -8 28 -16 57 -17 65 -2 8 -4 17 -6 20 -1 3 -3 10 -4 15 -1 6 -7 23 -13
38 -7 16 -12 34 -12 41 0 7 -3 16 -7 20 -4 3 -8 12 -9 19 -1 7 -20 54 -42 105
-22 50 -37 92 -33 92 3 0 2 4 -4 8 -5 4 -28 43 -50 87 -22 44 -43 82 -47 83
-5 2 -8 8 -8 13 0 12 -62 113 -72 117 -4 2 -8 9 -8 15 0 10 -14 30 -60 85 -6
6 -7 12 -3 12 4 0 4 4 -2 8 -5 4 -46 50 -90 102 -74 88 -200 218 -256 265
-106 88 -160 131 -194 155 -90 60 -137 90 -180 114 -28 16 -53 33 -56 38 -3 5
-9 9 -13 9 -11 -1 -41 13 -80 37 -21 13 -47 25 -59 28 -11 2 -24 9 -29 16 -4
7 -8 10 -8 5 0 -4 -17 1 -39 12 -21 11 -41 17 -45 14 -3 -4 -6 -1 -6 5 0 7 -3
11 -7 10 -5 0 -17 2 -28 6 -117 44 -159 58 -190 62 -11 1 -21 3 -22 4 -2 2 -7
4 -13 5 -5 1 -11 3 -12 4 -2 2 -14 5 -27 7 -14 2 -52 11 -84 20 -33 8 -66 13
-73 10 -8 -3 -14 -1 -14 4 0 6 -3 9 -7 8 -7 -2 -108 10 -158 19 -30 5 -411 13
-416 9z"/>
</g>
</svg>
